HIERARCHY
ROOT pelvis
{
  OFFSET 0 100 0
  CHANNELS 6 Xposition Yposition Zposition Zrotation Xrotation Yrotation
  JOINT pelvis_right_femur
  {
    OFFSET -10.78128 -3.44521 -0.5502486
    CHANNELS 3 Zrotation Xrotation Yrotation
    JOINT right_femur_tibia
    {
      OFFSET -0.8047443 -44.0398 -0.1307829
      CHANNELS 3 Zrotation Xrotation Yrotation
      JOINT right_tibia_foot
      {
        OFFSET 3.006224 -47.83518 -5
        CHANNELS 3 Zrotation Xrotation Yrotation
        End Site
        {
          OFFSET 0 -5 15
        }
      }
    }
  }
  JOINT pelvis_left_femur
  {
    OFFSET 10.78128 -3.44521 -0.5502486
    CHANNELS 3 Zrotation Xrotation Yrotation
    JOINT left_femur_tibia
    {
      OFFSET 0.8047443 -44.0398 -0.1307829
      CHANNELS 3 Zrotation Xrotation Yrotation
      JOINT left_tibia_foot
      {
        OFFSET -4.370144 -48.10324 -4.275266
        CHANNELS 3 Zrotation Xrotation Yrotation
        End Site
        {
          OFFSET 0 -5 15
        }
      }
    }
  }
  JOINT pelvis_spine1
  {
    OFFSET 0 6.468898 -3.129235
    CHANNELS 3 Zrotation Xrotation Yrotation
    JOINT spine1
    {
      OFFSET 0 23.15396 4.99043
      CHANNELS 3 Zrotation Xrotation Yrotation
      JOINT spine2
      {
        OFFSET 0 20.79997 -5.064912
        CHANNELS 3 Zrotation Xrotation Yrotation
        JOINT neck
        {
          OFFSET 0 14.38658 9.616178
          CHANNELS 3 Zrotation Xrotation Yrotation
          End Site
          {
            OFFSET 0 20 0
          }
        }
      }
      JOINT right_manubrium
      {
        OFFSET -5.722621 16.35077 3.967754
        CHANNELS 3 Zrotation Xrotation Yrotation
        JOINT right_clavicle
        {
          OFFSET -13.16364 1.694482 -4.693211
          CHANNELS 3 Zrotation Xrotation Yrotation
          JOINT right_humerus
          {
            OFFSET -28.5034 -0.3100689 -2.792744
            CHANNELS 3 Zrotation Xrotation Yrotation
            JOINT right_radius
            {
              OFFSET -25.15693 0.02248979 -1.271978
              CHANNELS 3 Zrotation Xrotation Yrotation
              End Site
              {
                OFFSET -15 0 0
              }
            }
          }
        }
      }
      JOINT left_manubrium
      {
        OFFSET 5.722621 16.35077 3.967754
        CHANNELS 3 Zrotation Xrotation Yrotation
        JOINT left_clavicle
        {
          OFFSET 13.16364 1.694482 -4.693211
          CHANNELS 3 Zrotation Xrotation Yrotation
          JOINT left_humerus
          {
            OFFSET 29.39168 -1.063119 -2.237045
            CHANNELS 3 Zrotation Xrotation Yrotation
            JOINT left_radius
            {
              OFFSET 24.59957 -0.9528479 0.9047498
              CHANNELS 3 Zrotation Xrotation Yrotation
              End Site
              {
                OFFSET 15 -0 -0
              }
            }
          }
        }
      }
    }
  }
}
MOTION
Frames: 21
Frame Time: 0.0416666666667
0 103.5113 0 0.8185542 -0.7321099 0.1880639 3.276882 -16.0531 8.268756 -0 37.28997 -0 -5.895647 -15.04323 -2.633468 -7.233673 5.437776 -22.39908 -0 3.180729 -0 7.36387 -18.35152 26.24415 -1.698651 -2.319909 4.553114 2.849074 9.705584 -7.633492 0.6833032 21.49311 7.06292 4.162968 -26.75932 8.236918 5.156571 -20.13385 11.41135 86.41969 36.91536 -18.81962 -0 0 13.56518 -6.291869 6.408193 5.116927 6.216091 -21.77591 -1.368726 -95.35876 25.59271 25.07653 0 0 -16.27503 10.32146 17.23358 2.762538
0.4470224 103.3528 1.125563 0.8263231 -0.6598432 0.3659447 3.484128 -17.30518 8.711696 -0 38.49275 -0 -5.894359 -14.98044 -2.875792 -7.379196 6.751575 -22.92431 -0 4.712263 -0 7.501823 -18.48647 26.37571 -1.734011 -2.33556 4.523142 2.900508 9.552218 -7.582388 0.6966076 21.56491 7.076992 4.187061 -27.00344 8.325211 5.265878 -20.15268 11.34748 86.19493 37.22216 -18.61761 -0 0 13.61447 -5.668053 6.038546 4.974392 6.23183 -21.6069 -1.173033 -95.85043 25.98264 25.51808 0 0 -15.81023 10.37191 17.53483 2.793627
0.8123434 103.2068 2.689389 0.7515717 -0.8610459 0.6341825 3.530324 -20.07132 7.985384 -0 37.66859 -0 -5.740468 -12.74157 -3.278394 -7.145585 9.698732 -22.06903 -0 6.127329 -0 6.56289 -19.14771 25.08653 -1.709624 -2.228666 4.450971 2.812208 9.714592 -7.77593 0.7036011 21.42573 7.137363 4.131206 -26.35661 8.263802 5.173007 -19.67536 11.40382 86.86111 36.76736 -19.53045 -0 0 13.08315 -7.023994 7.076119 5.171894 6.27401 -21.9544 -1.531337 -94.39833 25.6974 23.74465 0 0 -17.50837 9.81327 16.71743 3.311953
1.126378 102.9589 4.438556 0.6361075 -0.7221456 0.9035087 3.717511 -21.8643 7.488226 -0 35.29574 -0 -5.92838 -12.11493 -3.362654 -6.898408 11.09716 -21.58856 -0 6.100212 -0 6.284514 -19.57822 24.42267 -1.710334 -2.189627 4.360554 2.813246 9.731697 -7.88781 0.7110614 21.39059 7.178443 4.118502 -26.16722 8.278277 5.166605 -19.40155 11.40052 87.20709 36.66637 -20.04352 -0 0 12.71016 -7.363055 7.396725 5.158717 6.322947 -22.12012 -1.641103 -93.79875 25.7041 22.89299 0 0 -18.2914 9.658592 16.46727 3.457553
1.36987 102.4802 6.557683 0.4427195 -0.5509882 1.182363 3.90974 -24.33434 6.500551 -0 31.01523 -0 -6.221113 -11.04912 -3.424107 -6.46756 12.93663 -20.58252 -0 5.679555 -0 5.71536 -20.20214 23.24002 -1.72013 -2.131671 4.216094 2.824999 9.720659 -8.046088 0.7262662 21.35325 7.245331 4.103681 -25.92842 8.321632 5.183701 -18.98316 11.37991 87.68207 36.5798 -20.77987 -0 0 12.1526 -7.746107 7.810782 5.108911 6.400954 -22.33109 -1.763037 -92.99031 25.80106 21.68178 0 0 -19.38585 9.421121 16.14702 3.703137
1.549458 101.7729 9.062666 0.2562986 -0.4266152 1.471921 4.036884 -26.58672 5.498537 -0 26.83177 -0 -6.484583 -9.959762 -3.476366 -6.069146 14.62114 -19.53259 -0 5.377643 -0 5.079434 -20.7465 22.03231 -1.731439 -2.090717 4.068457 2.855325 9.692805 -8.192837 0.7391835 21.33323 7.305682 4.09754 -25.78089 8.372975 5.209232 -18.6144 11.3525 88.11219 36.54433 -21.44948 -0 0 11.6222 -7.93736 8.083017 5.015689 6.48019 -22.52254 -1.846621 -92.33349 25.91684 20.64307 0 0 -20.31072 9.291745 15.93955 3.835774
1.667585 100.8329 12.09486 0.07096885 -0.4490759 1.786789 4.034175 -28.79484 4.261155 -0 22.53003 -0 -6.656359 -8.378091 -3.569728 -5.669404 16.42256 -18.144 -0 5.474217 -0 4.099639 -21.22959 20.4939 -1.74806 -2.047129 3.896519 2.896861 9.643609 -8.354333 0.7550033 21.31913 7.37563 4.093662 -25.64594 8.441318 5.251099 -18.19956 11.3139 88.57857 36.53733 -22.18911 -0 0 11.02386 -8.073238 8.34396 4.889268 6.572569 -22.72234 -1.918131 -91.6446 26.08397 19.51218 0 0 -21.30475 9.159027 15.74347 3.980409
1.735994 99.6967 15.76462 -0.08907259 -0.6578122 2.134855 3.898905 -30.61677 2.902131 -0 18.5612 -0 -6.700134 -6.424514 -3.710326 -5.318297 18.08965 -16.48956 -0 6.246379 -0 2.80661 -21.51437 18.73502 -1.763918 -2.007515 3.72636 2.940883 9.594444 -8.512308 0.7699017 21.30779 7.442819 4.091112 -25.52803 8.508701 5.291783 -17.8005 11.27539 89.03566 36.53102 -22.90925 -0 0 10.43725 -8.176991 8.577228 4.757649 6.663727 -22.91922 -1.984284 -90.98734 26.23663 18.42077 0 0 -22.25835 9.052154 15.56904 4.095924
1.769557 98.43689 20.19002 -0.2102948 -1.109926 2.516342 3.667053 -31.83182 1.484953 -0 15.10672 -0 -6.585239 -4.108792 -3.927816 -5.028134 19.47942 -14.53266 -0 8.186748 -0 1.151992 -21.4541 16.75975 -1.779428 -1.966224 3.562708 2.980315 9.546936 -8.664825 0.7851627 21.2955 7.508714 4.087068 -25.40188 8.573769 5.331224 -17.40778 11.23794 89.47994 36.51519 -23.60863 -0 0 9.869232 -8.300373 8.820952 4.63747 6.7512 -23.10831 -2.05093 -90.33661 26.37506 17.3426 0 0 -23.19655 8.930371 15.3856 4.228652
1.786929 97.19048 25.42354 -0.2693956 -1.829536 2.913266 3.4619 -32.06093 0.2620073 -0 12.60345 -0 -6.299939 -1.705681 -4.243829 -4.811326 20.2643 -12.40932 -0 11.88524 -0 -0.7559249 -20.8465 14.76981 -1.790618 -1.923836 3.432464 3.001834 9.517603 -8.792537 0.7990853 21.27769 7.564241 4.078502 -25.25245 8.621682 5.356542 -17.06689 11.21088 89.86025 36.46535 -24.20098 -0 0 9.398163 -8.499729 9.089338 4.566837 6.820227 -23.27029 -2.124913 -89.73719 26.45544 16.38114 0 0 -24.03558 8.780094 15.17918 4.389409
1.803887 96.16262 31.42041 -0.2483652 -2.816366 3.282637 3.464241 -30.92464 -0.443194 -0 11.44389 -0 -5.858913 0.3903603 -4.672508 -4.640226 20.06849 -10.31953 -0 18.01362 -0 -2.741401 -19.48779 13.04012 -1.794578 -1.877595 3.374586 2.984628 9.521198 -8.864453 0.8110831 21.24921 7.599136 4.060541 -25.05354 8.636348 5.356958 -16.83361 11.20396 90.09084 36.36087 -24.55656 -0 0 9.139998 -8.856584 9.410477 4.60246 6.849773 -23.36461 -2.208525 -89.25721 26.44645 15.68305 0 0 -24.65342 8.553024 14.92349 4.632376
1.824115 95.60234 37.99328 -0.1458572 -4.00446 3.551121 3.837205 -28.10708 -0.3141941 -0 11.84071 -0 -5.336778 1.618396 -5.181931 -4.446727 18.48271 -8.555234 -0 26.96693 -0 -4.532775 -17.25384 11.92495 -1.787077 -1.82569 3.445303 2.900536 9.577922 -8.834224 0.8199074 21.20457 7.597392 4.027326 -24.7778 8.594952 5.316844 -16.7957 11.23071 90.04503 36.17639 -24.48114 -0 0 9.26623 -9.46855 9.806458 4.822577 6.809594 -23.33098 -2.301302 -89.01102 26.30639 15.48158 0 0 -24.8528 8.194455 14.59314 5.019403
1.830244 95.7225 44.80649 0.002512256 -5.237707 3.615171 4.60849 -23.49404 0.7599917 -0 13.44905 -0 -4.897938 1.35872 -5.65696 -4.137687 15.16219 -7.389022 -0 38.38171 -0 -5.838248 -14.19714 11.72477 -1.766217 -1.765112 3.696469 2.723187 9.698749 -8.655241 0.8255918 21.14144 7.545227 3.974004 -24.40355 8.480702 5.226964 -17.03211 11.30013 89.60055 35.89544 -23.7895 -0 0 9.939861 -10.41377 10.28732 5.299614 6.672334 -23.10314 -2.394406 -89.11527 26.01791 16.00085 0 0 -24.43556 7.644949 14.16736 5.622685
1.790861 96.56726 51.44577 0.1212458 -6.263584 3.363088 5.592158 -17.37076 2.510067 -0 15.17889 -0 -4.764784 -0.7973931 -5.895847 -3.645851 10.02755 -6.931017 -0 50.38521 -0 -6.428535 -10.68344 12.52264 -1.734531 -1.694683 4.13408 2.449497 9.873482 -8.315389 0.8296545 21.06459 7.441478 3.901495 -23.93839 8.297773 5.092849 -17.55347 11.40786 88.73903 35.52023 -22.44952 -0 0 11.18884 -11.67578 10.82686 6.041744 6.435726 -22.65767 -2.47277 -89.60772 25.60349 17.28854 0 0 -23.34383 6.89496 13.65222 6.460972
1.694562 97.90929 57.61596 0.1399258 -6.851084 2.739246 6.438331 -10.57852 4.25063 -0 15.64533 -0 -5.033453 -4.476552 -5.723995 -2.972797 3.606499 -6.944878 -0 59.53802 -0 -6.295623 -7.422549 13.99228 -1.699166 -1.617098 4.688299 2.11507 10.06845 -7.866495 0.8345671 20.98551 7.305458 3.818714 -23.4281 8.078855 4.937689 -18.25577 11.53306 87.61731 35.08145 -20.69285 -0 0 12.8086 -13.10742 11.36697 6.950972 6.137924 -22.05784 -2.525289 -90.37251 25.12863 19.08045 0 0 -21.7872 6.020053 13.08915 7.454411
1.580725 99.33181 63.3263 0.06469784 -6.992088 1.807327 6.849284 -4.147448 5.250818 -0 14.37252 -0 -5.508506 -8.398728 -5.134796 -2.162548 -3.028238 -6.927683 -0 62.78166 -0 -5.715618 -5.12237 15.5202 -1.666545 -1.537855 5.254535 1.773417 10.25091 -7.395931 0.8417821 20.91411 7.164982 3.736825 -22.92678 7.863548 4.785167 -18.98219 11.65262 86.47567 34.62176 -18.88111 -0 0 14.4796 -14.52588 11.85943 7.881726 5.834621 -21.42198 -2.556894 -91.20039 24.65983 20.95234 0 0 -20.129 5.140132 12.52918 8.464335
1.518507 100.4492 68.80744 -0.03627126 -6.878192 0.7141484 6.775003 1.443639 5.282835 -0 12.11186 -0 -5.898513 -11.43895 -4.249569 -1.250442 -9.057814 -6.542025 -0 59.75585 -0 -5.011379 -3.988833 16.7079 -1.63815 -1.459558 5.781087 1.450353 10.41177 -6.950537 0.8514029 20.85246 7.033354 3.660133 -22.45281 7.667731 4.641927 -19.65346 11.75812 85.43607 34.16015 -17.19995 -0 0 16.03815 -15.86101 12.29841 8.764531 5.552733 -20.81758 -2.579464 -91.96956 24.21964 22.679 0 0 -18.57124 4.314044 11.99042 9.417961
1.565074 101.0243 74.28612 -0.1114053 -6.672416 -0.4038208 6.363939 6.303726 4.614456 -0 9.748017 -0 -6.091919 -13.41709 -3.196706 -0.2679643 -14.33156 -5.809149 -0 52.23156 -0 -4.31776 -3.760223 17.55862 -1.612646 -1.380698 6.280544 1.138395 10.55752 -6.521079 0.8633268 20.79814 6.907169 3.586415 -21.99336 7.48528 4.502713 -20.28593 11.85322 84.47374 33.68739 -15.61067 -0 0 17.51981 -17.14836 12.69977 9.619375 5.285205 -20.23359 -2.596694 -92.69406 23.7947 24.29947 0 0 -17.08262 3.523414 11.45994 10.33472
1.751677 100.9589 79.88873 -0.1430632 -6.447875 -1.457616 5.78597 10.61404 3.623186 -0 7.807624 -0 -6.113605 -14.62745 -2.087753 0.7235259 -18.93527 -4.918532 -0 42.31177 -0 -3.646563 -4.08599 18.22107 -1.589202 -1.298775 6.775442 0.8249178 10.69333 -6.087843 0.8778887 20.74938 6.780802 3.512813 -21.53339 7.308607 4.362896 -20.91048 11.94189 83.54029 33.19035 -14.03722 -0 0 18.99349 -18.43244 13.07589 10.47947 5.01993 -19.64204 -2.606573 -93.41652 23.37131 25.89872 0 0 -15.58679 2.735914 10.92119 11.25315
2.08312 100.2802 85.65545 -0.1281041 -6.263872 -2.395819 5.146758 14.32319 2.629718 -0 6.781678 -0 -5.990796 -15.26065 -1.060295 1.590319 -22.75023 -4.093098 -0 31.9907 -0 -3.033579 -4.690249 18.78672 -1.568431 -1.212826 7.258062 0.5127976 10.81679 -5.657342 0.895739 20.70663 6.656626 3.43927 -21.07146 7.140733 4.223487 -21.512 12.02219 82.65261 32.67281 -12.50705 -0 0 20.4343 -19.70955 13.43136 11.33673 4.760724 -19.05108 -2.611134 -94.11517 22.95868 27.43794 0 0 -14.11785 1.952775 10.37162 12.17173
2.535742 99.15378 91.5799 -0.06909319 -6.216753 -3.189501 4.48547 17.18679 1.899649 -0 7.315243 -0 -5.710417 -15.26612 -0.2961952 2.125079 -25.41472 -3.553676 -0 23.34285 -0 -2.599972 -5.344908 19.24927 -1.551473 -1.124551 7.68635 0.2230613 10.92093 -5.267549 0.9172556 20.67178 6.545466 3.368688 -20.62137 6.994656 4.089323 -22.02511 12.0872 81.89828 32.16105 -11.16423 -0 0 21.70916 -20.92382 13.7668 12.13538 4.529344 -18.51454 -2.621234 -94.69132 22.59007 28.73898 0 0 -12.84027 1.217851 9.8278 13.0353
